<svg width="27" height="17" viewBox="0 0 27 17" fill="none" xmlns="http://www.w3.org/2000/svg">
<path fill-rule="evenodd" clip-rule="evenodd" d="M1.6593 8.44711C1.6593 8.3071 1.74671 8.17281 1.90229 8.0738C2.05788 7.97479 2.2689 7.91917 2.48893 7.91917H22.0565L16.8348 4.59734C16.6791 4.49821 16.5916 4.36375 16.5916 4.22356C16.5916 4.08336 16.6791 3.94891 16.8348 3.84977C16.9906 3.75064 17.2019 3.69495 17.4222 3.69495C17.6425 3.69495 17.8538 3.75064 18.0096 3.84977L24.6466 8.07333C24.7239 8.12237 24.7852 8.18063 24.827 8.24477C24.8688 8.30891 24.8904 8.37767 24.8904 8.44711C24.8904 8.51656 24.8688 8.58532 24.827 8.64946C24.7852 8.7136 24.7239 8.77186 24.6466 8.8209L18.0096 13.0445C17.8538 13.1436 17.6425 13.1993 17.4222 13.1993C17.2019 13.1993 16.9906 13.1436 16.8348 13.0445C16.6791 12.9453 16.5916 12.8109 16.5916 12.6707C16.5916 12.5305 16.6791 12.396 16.8348 12.2969L22.0565 8.97506H2.48893C2.2689 8.97506 2.05788 8.91944 1.90229 8.82043C1.74671 8.72142 1.6593 8.58713 1.6593 8.44711Z" fill="white"/>
</svg>
