<svg width="28" height="29" viewBox="0 0 28 29" fill="none" xmlns="http://www.w3.org/2000/svg">
<path d="M14 25.375C12.5264 24.0732 11.1605 22.646 9.91665 21.1084C8.04998 18.7993 5.83331 15.3603 5.83331 12.0833C5.8325 10.4097 6.31107 8.77352 7.20846 7.38174C8.10584 5.98996 9.3817 4.90518 10.8746 4.26469C12.3674 3.6242 14.0102 3.45679 15.5949 3.78364C17.1797 4.1105 18.6352 4.91693 19.7773 6.10087C20.5377 6.88491 21.1404 7.81736 21.5505 8.84424C21.9606 9.87113 22.1701 10.9721 22.1666 12.0833C22.1666 15.3603 19.95 18.7993 18.0833 21.1084C16.8394 22.646 15.4735 24.0732 14 25.375ZM14 8.45833C13.0717 8.45833 12.1815 8.84025 11.5251 9.52007C10.8687 10.1999 10.5 11.1219 10.5 12.0833C10.5 13.0447 10.8687 13.9668 11.5251 14.6466C12.1815 15.3264 13.0717 15.7083 14 15.7083C14.9282 15.7083 15.8185 15.3264 16.4749 14.6466C17.1312 13.9668 17.5 13.0447 17.5 12.0833C17.5 11.1219 17.1312 10.1999 16.4749 9.52007C15.8185 8.84025 14.9282 8.45833 14 8.45833Z" fill="#636161"/>
</svg>
