<svg width="45" height="43" viewBox="0 0 45 43" fill="none" xmlns="http://www.w3.org/2000/svg">
<path d="M39.375 14.3333V28.6667C39.375 31.0426 38.3873 33.3212 36.6291 35.0012C34.871 36.6812 32.4864 37.625 30 37.625H15C12.5136 37.625 10.129 36.6812 8.37087 35.0012C6.61272 33.3212 5.625 31.0426 5.625 28.6667V14.3333C5.625 11.9574 6.61272 9.67885 8.37087 7.99884C10.129 6.31882 12.5136 5.375 15 5.375H30C32.4864 5.375 34.871 6.31882 36.6291 7.99884C38.3873 9.67885 39.375 11.9574 39.375 14.3333Z" stroke="#0054A5" stroke-width="3" stroke-linecap="round" stroke-linejoin="round"/>
<path d="M18.75 21.5C17.6375 21.5 16.5499 21.8152 15.6249 22.4059C14.6999 22.9965 13.9789 23.8359 13.5532 24.8181C13.1274 25.8002 13.016 26.881 13.2331 27.9236C13.4501 28.9663 13.9859 29.924 14.7725 30.6757C15.5592 31.4274 16.5615 31.9393 17.6526 32.1467C18.7438 32.3541 19.8748 32.2477 20.9026 31.8409C21.9304 31.434 22.8089 30.7451 23.427 29.8612C24.0451 28.9773 24.375 27.9381 24.375 26.875V10.75C24.9994 12.5417 27.375 16.125 31.875 16.125" stroke="#0054A5" stroke-width="3" stroke-linecap="round" stroke-linejoin="round"/>
</svg>
