<svg width="47" height="42" viewBox="0 0 47 42" fill="none" xmlns="http://www.w3.org/2000/svg">
<path d="M32.7486 24.6053C32.2483 24.3756 29.756 23.2846 29.2924 23.1369C28.8288 22.9811 28.4892 22.9072 28.1541 23.3666C27.8145 23.8219 26.8506 24.835 26.5477 25.1426C26.2539 25.4461 25.9556 25.483 25.4553 25.2574C22.4811 23.9285 20.5304 22.8867 18.5706 19.8803C18.0519 19.0805 19.0892 19.1379 20.0577 17.4111C20.2229 17.1076 20.1403 16.8492 20.0118 16.6195C19.8832 16.3898 18.8735 14.1668 18.4512 13.2604C18.0427 12.3785 17.6205 12.5016 17.3129 12.4852C17.0192 12.4687 16.6841 12.4688 16.3445 12.4688C16.0048 12.4688 15.4586 12.5836 14.9951 13.0307C14.5315 13.4859 13.2234 14.5811 13.2234 16.8041C13.2234 19.0271 15.0364 21.1805 15.2842 21.484C15.5413 21.7875 18.8505 26.3484 23.9315 28.3131C27.1444 29.5518 28.402 29.6584 30.0084 29.4451C30.9861 29.3139 33.001 28.3541 33.4187 27.2918C33.8364 26.2336 33.8364 25.3271 33.7124 25.1385C33.5885 24.9375 33.2489 24.8227 32.7486 24.6053Z" fill="#0054A5"/>
<path d="M42.4653 13.8797C41.4279 11.6771 39.9408 9.7002 38.0452 8.00215C36.1496 6.3082 33.9373 4.9752 31.468 4.05234C28.9436 3.10488 26.2631 2.625 23.5 2.625H23.4082C20.6268 2.6373 17.9325 3.12949 15.3989 4.09746C12.9526 5.03262 10.7586 6.36152 8.88136 8.05547C7.00412 9.74941 5.53078 11.7182 4.51183 13.9125C3.45617 16.1848 2.92375 18.6006 2.93752 21.0861C2.95129 23.9326 3.7132 26.7586 5.14064 29.2852V35.5195C5.14064 36.5613 6.08615 37.4062 7.25197 37.4062H14.2331C17.0605 38.6818 20.2229 39.3627 23.4082 39.375H23.5046C26.2539 39.375 28.9206 38.8992 31.4313 37.9682C33.8868 37.0535 36.0945 35.741 37.9856 34.0635C39.8812 32.3859 41.3729 30.4254 42.4148 28.2393C43.498 25.9752 44.0487 23.5676 44.0625 21.082C44.0763 18.5842 43.5347 16.1602 42.4653 13.8797ZM35.53 31.8445C32.3125 34.691 28.044 36.2578 23.5 36.2578H23.422C20.6543 36.2455 17.905 35.6303 15.477 34.4736L15.0914 34.2891H8.62892V28.5141L8.42238 28.1695C7.12804 25.9998 6.43957 23.543 6.4258 21.0697C6.40744 16.9805 8.15617 13.1414 11.3645 10.2498C14.5682 7.3582 18.8505 5.75859 23.4266 5.74219H23.5046C25.7995 5.74219 28.0256 6.14004 30.1232 6.92754C32.1702 7.69453 34.0062 8.79785 35.5851 10.2088C37.1594 11.6156 38.3986 13.2604 39.257 15.0896C40.1474 16.9846 40.5926 18.9943 40.5834 21.0697C40.5559 25.1549 38.7612 28.9816 35.53 31.8445Z" fill="#0054A5"/>
</svg>
